<!-- icon666.com - MILLIONS vector ICONS FREE --><svg clip-rule="evenodd" fill-rule="evenodd" image-rendering="optimizeQuality" shape-rendering="geometricPrecision" text-rendering="geometricPrecision" viewBox="0 0 1.70666 1.70666" xmlns="http://www.w3.org/2000/svg"><g id="Layer_x0020_1" fill-rule="nonzero"><path d="m.891598 1.12085c.00729921-.0105709.00464567-.0250591-.0059252-.0323583-.0105709-.00729921-.0250591-.00464567-.0323583.0059252l-.113311.164094.00306299-.558587c.00004724-.0128346-.010315-.0232835-.0231496-.0233307-.0128346-.00004724-.0232835.010315-.0233307.0231496l-.00305512.557134-.106913-.161197c-.00709449-.0107205-.0215433-.0136575-.0322638-.00656299-.0107205.00709449-.0136575.0215433-.00656299.0322638l.145961.220063c.013622.0205551.0303937.0219016.0451535.0005315l.152693-.221126z"></path><path d="m.719827.565031c.124717 0 .237642.0505591.319374.132291.0817323.0817323.132291.194657.132291.319374s-.0505591.237642-.132291.319374c-.0817323.0817323-.194657.132291-.319374.132291s-.237642-.0505591-.319374-.132291c-.0817323-.0817323-.132291-.194657-.132291-.319374s.0505591-.237642.132291-.319374c.0817323-.0817323.194657-.132291.319374-.132291zm.286382.165283c-.0732835-.0732835-.174539-.118614-.286382-.118614s-.213098.0453307-.286382.118614c-.0732835.0732835-.118614.174539-.118614.286382s.0453307.213098.118614.286382c.0732835.0732835.174539.118614.286382.118614s.213098-.0453307.286382-.118614c.0732835-.0732835.118614-.174539.118614-.286382s-.0453307-.213098-.118614-.286382z"></path><path d="m1.54717 1.67967-1.20112.00138189c-.0873071 0-.175091-.0276417-.242823-.0835984-.0635748-.0525157-.103063-.125394-.103142-.205906l-.00009449-1.01587c0-.0128858.0104488-.0233346.0233346-.0233346h.172394v-.170213c0-.0430669.0176063-.0822087.0459646-.110567.0283583-.0283543.0675-.0459606.110567-.0459606h.399606c.0471614 0 .081126.0146339.105579.0387323.019626.0193346.0323622.0442323.0404488.0721417h.784843l.00060236-.00000787c.00867323 0 .0162244.00472047.0202441.0117283l.00027559.00048425v.00000787l.00026378.00049213v.00000787l.00024803.0005v.00000787l.00024016.00050394v.00000787l.00022835.00051181v.00000787l.00021654.00051969v.00000787l.00020079.00052362v.00000787l.00019291.0005315v.00000787l.00017717.00053937v.00000787l.00016142.00054331v.00000787l.00014961.00054724v.00000787l.0001378.00055512v.00000787l.00012598.00055906v.00000787l.0001063.00056299v.00000787l.00009843.00056693v.00000787l.00007874.0005748v.00000787l.00006693.00057874v.00000787l.00005512.00058268v.00000787l.00003543.00058661v.00000787l.00002362.00059055v.00000787l.00000787.00059449v.00000787 1.38484c0 .0867795-.0795157.135024-.159492.135024zm-1.30478-1.32733h1.17393c.0128858 0 .0233346.0104488.0233346.0233346v1.15198c0 .0224173.00905118.0433858.0243346.0605669.0390197.0438583.110083.0666614.166213.0179409.018378-.0159567.0297913-.037752.0297913-.0615197v-1.3615h-.77822c-.0158425 0-.0222638-.00734646-.0257559-.0226063-.00587402-.0254291-.0155315-.0475827-.0312126-.0630315-.0159291-.0156969-.0392598-.0252362-.0729488-.0252362h-.399606c-.030185 0-.0576575.0123701-.0775748.0322835-.0199213.0199213-.0322874.0473898-.0322874.0775748v.170213zm1.20098 1.28096c-.0307244-.0269764-.0503858-.0641496-.0503858-.105642v-1.12865h-1.17393-.172394l-.00009449.992539c.00006693.0657913.0331339.126012.086378.169992.0543898.044937.129665.0728425.212705.0728425l1.09772-.00108268z"></path></g></svg>