<!-- icon666.com - MILLIONS vector ICONS FREE --><svg id="Capa_1" enable-background="new 0 0 480.016 480.016" viewBox="0 0 480.016 480.016" xmlns="http://www.w3.org/2000/svg"><g><path d="m176.01 416.017c-8.492.023-16.641-3.352-22.63-9.372l-144.021-144.007c-12.479-12.505-12.479-32.752 0-45.257l144.021-144.007c12.497-12.498 32.761-12.499 45.259-.002s12.499 32.761.002 45.259l-121.39 121.378 121.39 121.378c12.498 12.495 12.501 32.757.005 45.255-6.003 6.004-14.145 9.376-22.636 9.375zm-11.31-20.687c6.249 6.249 16.381 6.25 22.63.001s6.25-16.381.001-22.63l-127.053-127.035c-3.124-3.124-3.124-8.189 0-11.314l127.048-127.035c6.286-6.21 6.348-16.341.137-22.627-6.21-6.286-16.341-6.348-22.627-.137-.046.045-.091.091-.136.136l-144.026 144.006c-6.249 6.248-6.25 16.379-.002 22.627l.002.002z"></path><path d="m312.01 416.017c-8.492.023-16.641-3.352-22.63-9.372l-144.021-144.007c-12.479-12.505-12.479-32.752 0-45.257l144.021-144.007c12.497-12.498 32.761-12.499 45.259-.002s12.499 32.761.002 45.259l-121.39 121.378 121.39 121.378c12.498 12.495 12.501 32.757.005 45.255-6.003 6.004-14.145 9.376-22.636 9.375zm0-336.007c-4.244-.008-8.316 1.676-11.315 4.679l-144.021 144.006c-6.249 6.248-6.25 16.379-.002 22.627l.002.002 144.026 144.006c6.249 6.249 16.381 6.25 22.63.001s6.25-16.381.001-22.63l-127.053-127.035c-3.124-3.124-3.124-8.189 0-11.314l127.048-127.035c6.249-6.243 6.253-16.369.01-22.618-3.002-3.005-7.077-4.692-11.326-4.689z"></path><path d="m448.01 416.017c-8.492.023-16.641-3.352-22.63-9.372l-144.021-144.007c-12.479-12.505-12.479-32.752 0-45.257l144.021-144.007c12.508-12.476 32.753-12.476 45.261 0 12.479 12.505 12.479 32.752 0 45.257l-121.39 121.378 121.39 121.378c12.498 12.495 12.501 32.757.005 45.255-6.003 6.004-14.145 9.376-22.636 9.375zm0-336.007c-4.244-.007-8.316 1.676-11.315 4.679l-144.021 144.006c-6.249 6.248-6.25 16.379-.002 22.627.001.001.001.001.002.002l144.026 144.006c6.249 6.249 16.381 6.25 22.63.001s6.25-16.381.001-22.63l-127.053-127.035c-3.124-3.124-3.124-8.189 0-11.314l127.048-127.035c6.249-6.243 6.253-16.369.01-22.618-3.002-3.005-7.077-4.692-11.326-4.689z"></path></g></svg>