<!-- icon666.com - MILLIONS vector ICONS FREE -->
<svg 
id="Capa_1" 
enable-background="new 0 0 480.016 480.016" 
viewBox="0 0 480.016 480.016" 
fill="rgb(25, 105, 255)"
xmlns="http://www.w3.org/2000/svg">
<g>
<path d="m240.012 480.016c-8.492.024-16.641-3.351-22.63-9.372l-208.023-208.007c-12.478-12.505-12.478-32.751 0-45.256l208.023-208.007c12.497-12.498 32.76-12.499 45.258-.002s12.499 32.76.002 45.258l-185.394 185.379 185.393 185.377c12.498 12.495 12.501 32.757.005 45.255-6.002 6.004-14.145 9.376-22.634 9.375zm0-464.015c-4.245-.01-8.318 1.678-11.312 4.688l-208.027 208.006c-6.238 6.253-6.238 16.375 0 22.628l208.027 208.006c6.249 6.249 16.38 6.249 22.63 0 6.249-6.249 6.249-16.38 0-22.629l-191.054-191.034c-3.125-3.124-3.125-8.189-.001-11.314 0 0 .001-.001.001-.001l191.051-191.035c6.249-6.248 6.25-16.378.003-22.627-3.002-3.002-7.073-4.688-11.318-4.688z">
</path>
<path d="m448.011 480.016c-8.492.023-16.64-3.351-22.629-9.372l-208.023-208.007c-12.478-12.505-12.478-32.751 0-45.256l208.023-208.007c12.507-12.477 32.752-12.477 45.259 0 12.477 12.505 12.477 32.75 0 45.255l-185.393 185.38 185.393 185.377c12.498 12.495 12.501 32.757.005 45.255-6.003 6.004-14.145 9.377-22.635 9.375zm0-464.015c-4.245-.01-8.318 1.678-11.311 4.688l-208.027 208.006c-6.238 6.253-6.238 16.375 0 22.628l208.027 208.006c6.249 6.249 16.38 6.249 22.63.001 6.249-6.249 6.249-16.38 0-22.63l-191.054-191.034c-3.125-3.124-3.125-8.189-.001-11.314 0 0 .001-.001.001-.001l191.051-191.035c6.249-6.248 6.25-16.378.003-22.627-3.002-3.002-7.074-4.689-11.319-4.688z">
</path>
</g>
</svg>