<!-- icon666.com - MILLIONS vector ICONS FREE -->
<svg id="Capa_1" enable-background="new 0 0 480 480" viewBox="0 0 480 480" fill="rgb(25, 105, 255)" xmlns="http://www.w3.org/2000/svg"><g><path d="m240.008 480c-17.673 0-32-14.327-32-32 0-8.487 3.371-16.626 9.372-22.627l185.373-185.373-185.372-185.372c-12.497-12.497-12.498-32.758-.001-45.255s32.758-12.498 45.255-.001l208 208c12.477 12.505 12.477 32.75 0 45.255l-208 208c-5.988 6.021-14.136 9.396-22.627 9.373zm0-464c-8.837 0-16 7.163-16.001 15.999 0 4.244 1.686 8.315 4.688 11.316l191.029 191.028c3.124 3.124 3.124 8.189 0 11.314l-191.03 191.03c-6.286 6.211-6.347 16.341-.137 22.627 6.211 6.286 16.341 6.347 22.627.137.046-.046.092-.091.138-.138l208-208c6.239-6.252 6.239-16.375 0-22.627l-208-208c-2.994-3.01-7.068-4.697-11.314-4.686z"></path><path d="m32.008 480c-8.491.023-16.639-3.351-22.627-9.372-12.476-12.505-12.476-32.749 0-45.254l185.372-185.374-185.372-185.372c-12.497-12.496-12.498-32.758-.001-45.255s32.758-12.497 45.255-.001l208 208c12.477 12.505 12.477 32.75 0 45.255l-208 208c-5.988 6.021-14.136 9.396-22.627 9.373zm-11.314-20.687c6.248 6.249 16.379 6.249 22.627.001 0 0 0 0 .001-.001l208-208c6.239-6.252 6.239-16.375 0-22.627l-208-208c-6.249-6.248-16.379-6.248-22.628.001s-6.248 16.379.001 22.628l191.029 191.029c3.124 3.124 3.124 8.189 0 11.314l-191.03 191.03c-6.239 6.252-6.239 16.375 0 22.627z"></path></g></svg>