<!-- icon666.com - MILLIONS vector ICONS FREE -->
<svg 
    id="Layer_3" 
    viewBox="0 0 64 64" 
    xmlns="http://www.w3.org/2000/svg" 
    data-name="Layer 3"
    >
    <path 
        d="m56 32h-4v-8h4v-9.172a2 2 0 0 0 -.586-1.414l-10.828-10.828a2 2 0 0 0 
        -1.414-.586h-33.172a2 2 0 0 0 -2 2v23h4v10h-4v23a2 2 0 0 0 2 2h44a2 2 0 0 0 2-2z" 
        fill="#686868"/>
    <path 
        d="m52 60v-28h-4v-8h4v-9.172a2 2 0 0 0 -.586-1.414l-10.828-10.828a2 2 0 0 0 
        -1.414-.586h-29.172a2 2 0 0 0 -2 2v23h4v10h-4v23a2 2 0 0 0 2 2h40a2 2 0 0 0 2-2z" 
        fill="#777"/>
    <rect 
        fill="#e2e7f6" 
        height="38" 
        rx="2" 
        width="32" 
        x="16" 
        y="18"/>
    <path d="m18 18a2 2 0 0 0 -2 2v33h26a2 2 0 0 0 2-2v-33z" fill="#f2f2f2"/>
    <path d="m20 22 3 6 3-6z" fill="#f4a93c"/>
    <path d="m29 47h16v2h-16z" fill="#c8cded"/>
    <path d="m29 51h16v2h-16z"  fill="#c8cded"/>
    <path d="m30 22h14v4h-14z" fill="#f4a93c"/>
    <path d="m30 24h10a2 2 0 0 0 2-2h-12z" fill="#f9d266"/>
    <g fill="#f4a93c">
        <path d="m16 2v8h-4v-8"/>
        <path d="m24 2v8h-4v-8"/>
        <path d="m32 2v8h-4v-8"/>
        <path d="m40 2v8h-4v-8"/>
    </g>
    <path d="m36 2v6a2 2 0 0 0 2-2v-4z" fill="#f9d266"/>
    <path d="m28 2v6a2 2 0 0 0 2-2v-4z" fill="#f9d266"/>
    <path d="m20 2v6a2 2 0 0 0 2-2v-4z" fill="#f9d266"/>
    <path d="m12 2v6a2 2 0 0 0 2-2v-4z" fill="#f9d266"/>
    <path d="m21 34h-2v7a1 1 0 0 0 1 1h4v-2h-3z" fill="#b5b5b5"/>
    <path 
         d="m30 34h-4a1 1 0 0 0 -1 1v6a1 1 0 0 0 1 1h4a1 1 0 0 0 1-1v-6a1 1 0 0 0 -1-1zm-1 6h-2v-4h2z" 
        fill="#b5b5b5"/>
    <path 
        d="m37 34h-4a1 1 0 0 0 -1 1v6a1 1 0 0 0 1 1h4a1 1 0 0 0 1-1v-2h-2v1h-2v-4h2v1h2v-2a1 1 0 0 0 -1-1z" 
        fill="#b5b5b5"/>
    <path 
        d="m45 35v-1h-2v1a2 2 0 0 1 -2 2v-3h-2v8h2v-3a2 2 0 0 1 2 2v1h2v-1a3.975 3.975 0 0 0 
        -1.382-3 3.975 3.975 0 0 0 1.382-3z" 
        fill="#b5b5b5"/>
    <path 
        d="m56 25a1 1 0 0 0 1-1v-9.171a2.978 2.978 0 0 0 -.879-2.122l-10.828-10.828a2.978 
        2.978 0 0 0 -2.122-.879h-33.171a3 3 0 0 0 -3 3v23a1 1 0 0 0 1 1h3v8h-3a1 1 0 0 0 
        -1 1v23a3 3 0 0 0 3 3h44a3 3 0 0 0 3-3v-28a1 1 0 0 0 -1-1h-3v-6zm-19-22h2v6h-2zm-8 
        0h2v6h-2zm-8 0h2v6h-2zm-8 0h2v6h-2zm39 30h3v27a1 1 0 0 1 -1 1h-44a1 1 0 0 1 -1-1v-22h3a1 
        1 0 0 0 1-1v-10a1 1 0 0 0 -1-1h-3v-22a1 1 0 0 1 1-1h1v7a1 1 0 0 0 1 1h4a1 1 0 0 0 
        1-1v-7h2v7a1 1 0 0 0 1 1h4a1 1 0 0 0 1-1v-7h2v7a1 1 0 0 0 1 1h4a1 1 0 0 0 1-1v-7h2v7a1 
        1 0 0 0 1 1h4a1 1 0 0 0 1-1v-7h2.171a1 1 0 0 1 .708.293l10.828 10.828a1 1 0 0 1 
        .293.708v8.171h-3a1 1 0 0 0 -1 1v8a1 1 0 0 0 1 1z"/>
    <path 
        d="m46 17h-28a3 3 0 0 0 -3 3v34a3 3 0 0 0 3 3h28a3 3 0 0 0 3-3v-34a3 3 0 0 0 -3-3zm1 37a1 1 0 0 
        1 -1 1h-28a1 1 0 0 1 -1-1v-34a1 1 0 0 1 1-1h28a1 1 0 0 1 1 1z"/>
    <path 
        d="m22.105 28.447a1 1 0 0 0 1.79 0l3-6a1 1 0 0 0 -.895-1.447h-6a1 1 0 0 0 
        -.895 1.447zm2.277-5.447-1.382 2.764-1.382-2.764z"/>
    <path d="m21 34h-2v7a1 1 0 0 0 1 1h4v-2h-3z"/>
    <path d="m31 41v-6a1 1 0 0 0 -1-1h-4a1 1 0 0 0 -1 1v6a1 1 0 0 0 1 1h4a1 1 0 0 0 1-1zm-2-1h-2v-4h2z"/>
    <path d="m38 37v-2a1 1 0 0 0 -1-1h-4a1 1 0 0 0 -1 1v6a1 1 0 0 0 1 1h4a1 1 0 0 0 1-1v-2h-2v1h-2v-4h2v1z"/>
    <path d="m29 47h16v2h-16z"/>
    <path d="m29 51h16v2h-16z"/>
    <path d="m44 21h-14a1 1 0 0 0 -1 1v4a1 1 0 0 0 1 1h14a1 1 0 0 0 1-1v-4a1 1 0 0 0 -1-1zm-1 4h-12v-2h12z"/>
    <path 
        d="m43 35a2 2 0 0 1 -2 2v-3h-2v8h2v-3a2 2 0 0 1 2 2v1h2v-1a3.975 3.975 0 0 0 
        -1.382-3 3.975 3.975 0 0 0 1.382-3v-1h-2z"/>
</svg>