<!-- icon666.com - MILLIONS vector ICONS FREE -->
<svg fill="none" viewBox="0 0 20 20" xmlns="http://www.w3.org/2000/svg">
    <path d="m10 3.5c0-.39782.158-.77936.4393-1.06066s.6629-.43934 1.0607-.43934.7794.15804 1.0607.43934.4393.66284.4393 1.06066v.5c0 .26522.1054.51957.2929.70711.1875.18753.4419.29289.7071.29289h3c.2652 0 .5196.10536.7071.29289.1875.18754.2929.44189.2929.70711v3c0 .26522-.1054.51957-.2929.70711-.1875.18753-.4419.29289-.7071.29289h-.5c-.3978 0-.7794.158-1.0607.4393s-.4393.6629-.4393 1.0607.158.7794.4393 1.0607.6629.4393 1.0607.4393h.5c.2652 0 .5196.1054.7071.2929s.2929.4419.2929.7071v3c0 .2652-.1054.5196-.2929.7071s-.4419.2929-.7071.2929h-3c-.2652 0-.5196-.1054-.7071-.2929s-.2929-.4419-.2929-.7071v-.5c0-.3978-.158-.7794-.4393-1.0607s-.6629-.4393-1.0607-.4393-.7794.158-1.0607.4393-.4393.6629-.4393 1.0607v.5c0 .2652-.10536.5196-.29289.7071-.18754.1875-.44189.2929-.70711.2929h-3c-.26522 0-.51957-.1054-.70711-.2929-.18753-.1875-.29289-.4419-.29289-.7071v-3c0-.2652-.10536-.5196-.29289-.7071-.18754-.1875-.44189-.2929-.70711-.2929h-.5c-.39782 0-.77936-.158-1.06066-.4393s-.43934-.6629-.43934-1.0607.15804-.7794.43934-1.0607.66284-.4393 1.06066-.4393h.5c.26522 0 .51957-.10536.70711-.29289.18753-.18754.29289-.44189.29289-.70711v-3c0-.26522.10536-.51957.29289-.70711.18754-.18753.44189-.29289.70711-.29289h3c.26522 0 .51957-.10536.70711-.29289.18753-.18754.29289-.44189.29289-.70711z" fill="rgb(0,0,0)"/>
</svg>