<!-- icon666.com - MILLIONS vector ICONS FREE --><svg id="Icon_Set" viewBox="0 0 256 256" xmlns="http://www.w3.org/2000/svg"><g><g><g><g><circle cx="60.328" cy="59.497" fill="#44c7b6" r="42.48"></circle></g><g><circle cx="195.672" cy="59.497" fill="#44c7b6" r="42.48"></circle></g></g><g><g><g><g><g><g><circle cx="128" cy="135.4" fill="#44c7b6" r="98.527"></circle></g><g><circle cx="128" cy="135.4" fill="#ffe2e2" r="77.892"></circle></g><g><path d="m134.503 213.02c-2.142.182-4.309.269-6.503.269-43.015 0-77.889-34.873-77.889-77.889s34.874-77.888 77.889-77.888c2.194 0 4.361.087 6.503.269-39.972 3.304-71.386 36.798-71.386 77.62 0 40.821 31.414 74.316 71.386 77.619z" fill="#ffefee"></path></g><g><path d="m205.889 135.4c0 43.015-34.874 77.889-77.889 77.889-2.194 0-4.361-.087-6.503-.269 39.972-3.304 71.386-36.798 71.386-77.62s-31.414-74.316-71.386-77.62c2.142-.182 4.309-.269 6.503-.269 43.015.001 77.889 34.874 77.889 77.889z" fill="#ffcfcf"></path></g></g></g></g></g></g></g><g fill="#5f266d"><path d="m223.07 97.02c11.56-8.46 19.08-22.13 19.08-37.52 0-25.63-20.85-46.48-46.48-46.48-17.29 0-32.41 9.49-40.41 23.54-17.721-4.92-36.785-4.924-54.52 0-8-14.05-23.12-23.54-40.41-23.54-25.63 0-46.48 20.85-46.48 46.48 0 15.39 7.52 29.06 19.08 37.52-15.504 38.228-6.592 82.728 23.97 112.17l-19.92 27.44c-1.29 1.79-.9 4.29.89 5.59 1.73 1.267 4.27.937 5.59-.89l19.44-26.79c37.83 31.191 92.355 31.203 130.2 0l19.44 26.79c1.321 1.829 3.861 2.156 5.59.89 1.79-1.3 2.18-3.8.89-5.59l-19.92-27.44c30.55-29.431 39.48-73.927 23.97-112.17zm-27.4-76c21.22 0 38.48 17.26 38.48 38.48 0 12.15-5.66 23-14.47 30.05-11.66-23.26-31.93-41.48-56.6-50.49 6.81-10.83 18.87-18.04 32.59-18.04zm-173.82 38.48c0-21.22 17.26-38.48 38.48-38.48 13.72 0 25.78 7.21 32.59 18.04-24.67 9.01-44.94 27.23-56.6 50.49-8.81-7.05-14.47-17.9-14.47-30.05zm106.15 170.43c-52.136 0-94.53-42.431-94.53-94.53 0-52.43 42.692-94.53 94.53-94.53 51.912 0 94.53 42.16 94.53 94.53 0 52.109-42.404 94.53-94.53 94.53z"></path><path d="m128 53.51c-45.295 0-81.89 36.864-81.89 81.89 0 45.111 36.691 81.89 81.89 81.89 45.241 0 81.89-36.808 81.89-81.89 0-45.203-36.76-81.89-81.89-81.89zm0 155.78c-40.789 0-73.89-33.2-73.89-73.89 0-40.816 33.214-73.89 73.89-73.89 40.687 0 73.89 33.101 73.89 73.89 0 40.566-32.977 73.89-73.89 73.89z"></path><path d="m182.25 104.45c-2 .93-2.88 3.3-1.96 5.31 2.654 5.964 4.797 16.682 4.16 27.51-.13 2.21 1.55 4.1 3.75 4.24 2.561 0 4.118-1.772 4.23-3.76.723-12.199-1.716-24.391-4.87-31.33-.925-2.044-3.397-2.886-5.31-1.97z"></path><path d="m187.06 148.43c-2.13-.58-4.33.67-4.92 2.8-.84 3.09-1.91 6.17-3.19 9.15-.87 2.03.07 4.38 2.1 5.25 2.051.885 4.386-.08 5.25-2.1 1.42-3.32 2.62-6.75 3.56-10.19.58-2.13-.67-4.33-2.8-4.91z"></path><path d="m128 91.571c-2.209 0-4 1.791-4 4v38.285l-20.049 22.081c-1.485 1.636-1.363 4.166.272 5.65 1.634 1.484 4.164 1.364 5.65-.272l21.087-23.225c.669-.736 1.039-1.695 1.039-2.689v-39.83c.001-2.209-1.79-4-3.999-4z"></path></g></g></svg>