<!-- icon666.com - MILLIONS vector ICONS FREE --><svg viewBox="0 0 24 24" xmlns="http://www.w3.org/2000/svg"><g id="Layer_4" data-name="Layer 4"><path d="m12 0a12 12 0 1 0 12 12 12 12 0 0 0 -12-12zm0 23a11 11 0 1 1 11-11 11.0125 11.0125 0 0 1 -11 11z"></path><path d="m13.5371 12.2383a2.176 2.176 0 0 0 -3.0742 0l-3.5508 3.5508a2.1738 2.1738 0 1 0 3.0742 3.0742l2.0137-2.0133 2.0137 2.0137a2.1738 2.1738 0 1 0 3.0742-3.0742zm2.8438 5.918a1.1766 1.1766 0 0 1 -1.66 0l-2.3672-2.3672a.5.5 0 0 0 -.707 0l-2.3674 2.3672a1.1739 1.1739 0 0 1 -1.66-1.66l3.5507-3.551a1.1766 1.1766 0 0 1 1.66 0l3.5508 3.5508a1.1743 1.1743 0 0 1 0 1.66z"></path><path d="m13.5371 5.1367a2.1762 2.1762 0 0 0 -3.0742 0l-3.5508 3.5508a2.1738 2.1738 0 0 0 3.0742 3.0742l2.0137-2.0137 2.0137 2.0137a2.1738 2.1738 0 1 0 3.0742-3.0742zm2.8438 5.918a1.1766 1.1766 0 0 1 -1.66 0l-2.3674-2.3672a.5.5 0 0 0 -.707 0l-2.3672 2.3672a1.1739 1.1739 0 0 1 -1.66-1.66l3.5507-3.5509a1.1764 1.1764 0 0 1 1.66 0l3.5508 3.5507a1.1743 1.1743 0 0 1 0 1.66z"></path></g></svg>